<svg width="345" height="248" viewBox="0 0 345 248" fill="none" xmlns="http://www.w3.org/2000/svg">
<path opacity="0.4" d="M0.440341 3.67188V2.72727H6.06889V3.67188H3.79972V10H2.70597V3.67188H0.440341ZM7.71268 10V2.72727H12.2723V3.67188H8.80998V5.88778H12.0344V6.82884H8.80998V9.0554H12.315V10H7.71268ZM20.1786 5.09233H19.0706C19.028 4.85559 18.9487 4.64725 18.8327 4.46733C18.7167 4.28741 18.5746 4.13471 18.4065 4.00923C18.2384 3.88376 18.0502 3.78906 17.8419 3.72514C17.6359 3.66122 17.417 3.62926 17.1849 3.62926C16.7659 3.62926 16.3907 3.73461 16.0592 3.94531C15.7302 4.15601 15.4697 4.46496 15.278 4.87216C15.0886 5.27936 14.9939 5.77652 14.9939 6.36364C14.9939 6.95549 15.0886 7.45502 15.278 7.86222C15.4697 8.26941 15.7313 8.57718 16.0628 8.78551C16.3942 8.99384 16.7671 9.09801 17.1814 9.09801C17.411 9.09801 17.6288 9.06723 17.8348 9.00568C18.0431 8.94176 18.2313 8.84825 18.3994 8.72514C18.5675 8.60204 18.7096 8.4517 18.8256 8.27415C18.9439 8.09422 19.0256 7.88826 19.0706 7.65625L20.1786 7.6598C20.1194 8.01728 20.0045 8.34635 19.8341 8.64702C19.666 8.94531 19.4494 9.20336 19.1842 9.42116C18.9214 9.6366 18.6208 9.8035 18.2822 9.92188C17.9437 10.0402 17.5744 10.0994 17.1743 10.0994C16.5446 10.0994 15.9835 9.95028 15.4911 9.65199C14.9986 9.35133 14.6104 8.92164 14.3263 8.36293C14.0446 7.80421 13.9037 7.13778 13.9037 6.36364C13.9037 5.58712 14.0457 4.92069 14.3298 4.36435C14.6139 3.80563 15.0022 3.37713 15.4946 3.07884C15.987 2.77817 16.5469 2.62784 17.1743 2.62784C17.5602 2.62784 17.92 2.68348 18.2538 2.79474C18.59 2.90365 18.8919 3.06463 19.1594 3.2777C19.4269 3.4884 19.6482 3.74645 19.8234 4.05185C19.9986 4.35488 20.117 4.7017 20.1786 5.09233ZM21.8916 10V2.72727H22.9889V5.88778H26.6146V2.72727H27.7154V10H26.6146V6.82884H22.9889V10H21.8916ZM35.5835 2.72727V10H34.575L30.8782 4.66619H30.8108V10H29.7135V2.72727H30.7291L34.4294 8.06818H34.4968V2.72727H35.5835ZM43.9016 6.36364C43.9016 7.14015 43.7596 7.80777 43.4755 8.36648C43.1914 8.92282 42.802 9.35133 42.3072 9.65199C41.8147 9.95028 41.2549 10.0994 40.6275 10.0994C39.9978 10.0994 39.4355 9.95028 38.9407 9.65199C38.4483 9.35133 38.06 8.92164 37.7759 8.36293C37.4918 7.80421 37.3498 7.13778 37.3498 6.36364C37.3498 5.58712 37.4918 4.92069 37.7759 4.36435C38.06 3.80563 38.4483 3.37713 38.9407 3.07884C39.4355 2.77817 39.9978 2.62784 40.6275 2.62784C41.2549 2.62784 41.8147 2.77817 42.3072 3.07884C42.802 3.37713 43.1914 3.80563 43.4755 4.36435C43.7596 4.92069 43.9016 5.58712 43.9016 6.36364ZM42.815 6.36364C42.815 5.77178 42.7191 5.27344 42.5273 4.86861C42.3379 4.46141 42.0775 4.15365 41.7461 3.94531C41.417 3.73461 41.0442 3.62926 40.6275 3.62926C40.2085 3.62926 39.8344 3.73461 39.5053 3.94531C39.1763 4.15365 38.9158 4.46141 38.7241 4.86861C38.5347 5.27344 38.44 5.77178 38.44 6.36364C38.44 6.95549 38.5347 7.45502 38.7241 7.86222C38.9158 8.26705 39.1763 8.57481 39.5053 8.78551C39.8344 8.99384 40.2085 9.09801 40.6275 9.09801C41.0442 9.09801 41.417 8.99384 41.7461 8.78551C42.0775 8.57481 42.3379 8.26705 42.5273 7.86222C42.7191 7.45502 42.815 6.95549 42.815 6.36364ZM45.6697 10V2.72727H46.767V9.0554H50.0625V10H45.6697ZM57.7485 6.36364C57.7485 7.14015 57.6065 7.80777 57.3224 8.36648C57.0383 8.92282 56.6488 9.35133 56.154 9.65199C55.6616 9.95028 55.1017 10.0994 54.4744 10.0994C53.8446 10.0994 53.2824 9.95028 52.7876 9.65199C52.2951 9.35133 51.9069 8.92164 51.6228 8.36293C51.3387 7.80421 51.1967 7.13778 51.1967 6.36364C51.1967 5.58712 51.3387 4.92069 51.6228 4.36435C51.9069 3.80563 52.2951 3.37713 52.7876 3.07884C53.2824 2.77817 53.8446 2.62784 54.4744 2.62784C55.1017 2.62784 55.6616 2.77817 56.154 3.07884C56.6488 3.37713 57.0383 3.80563 57.3224 4.36435C57.6065 4.92069 57.7485 5.58712 57.7485 6.36364ZM56.6619 6.36364C56.6619 5.77178 56.566 5.27344 56.3742 4.86861C56.1848 4.46141 55.9244 4.15365 55.593 3.94531C55.2639 3.73461 54.891 3.62926 54.4744 3.62926C54.0553 3.62926 53.6813 3.73461 53.3522 3.94531C53.0231 4.15365 52.7627 4.46141 52.571 4.86861C52.3816 5.27344 52.2869 5.77178 52.2869 6.36364C52.2869 6.95549 52.3816 7.45502 52.571 7.86222C52.7627 8.26705 53.0231 8.57481 53.3522 8.78551C53.6813 8.99384 54.0553 9.09801 54.4744 9.09801C54.891 9.09801 55.2639 8.99384 55.593 8.78551C55.9244 8.57481 56.1848 8.26705 56.3742 7.86222C56.566 7.45502 56.6619 6.95549 56.6619 6.36364ZM64.4385 5.02486C64.3698 4.80942 64.2775 4.61648 64.1615 4.44602C64.0478 4.2732 63.9117 4.12642 63.7531 4.00568C63.5945 3.88258 63.4134 3.78906 63.2098 3.72514C63.0085 3.66122 62.7872 3.62926 62.5457 3.62926C62.1361 3.62926 61.7668 3.73461 61.4377 3.94531C61.1087 4.15601 60.8483 4.46496 60.6565 4.87216C60.4671 5.27699 60.3724 5.77296 60.3724 6.36009C60.3724 6.94957 60.4683 7.44792 60.6601 7.85511C60.8518 8.26231 61.1146 8.57126 61.4484 8.78196C61.7822 8.99266 62.1622 9.09801 62.5883 9.09801C62.9837 9.09801 63.3281 9.01752 63.6217 8.85653C63.9176 8.69555 64.1461 8.46828 64.3071 8.17472C64.4704 7.87879 64.5521 7.53078 64.5521 7.13068L64.8362 7.18395H62.7552V6.27841H65.6139V7.10582C65.6139 7.71662 65.4837 8.24692 65.2233 8.69673C64.9652 9.14418 64.6077 9.48982 64.1508 9.73366C63.6963 9.97751 63.1754 10.0994 62.5883 10.0994C61.9302 10.0994 61.3525 9.94792 60.8554 9.64489C60.3606 9.34186 59.9747 8.91217 59.6977 8.35582C59.4207 7.79711 59.2822 7.13423 59.2822 6.36719C59.2822 5.78717 59.3627 5.26634 59.5237 4.80469C59.6847 4.34304 59.9108 3.95123 60.202 3.62926C60.4955 3.30492 60.84 3.05753 61.2353 2.88707C61.6331 2.71425 62.0675 2.62784 62.5386 2.62784C62.9316 2.62784 63.2974 2.68584 63.6359 2.80185C63.9768 2.91785 64.2798 3.08239 64.545 3.29545C64.8125 3.50852 65.0339 3.76184 65.2091 4.0554C65.3842 4.34659 65.5026 4.66974 65.5642 5.02486H64.4385ZM68.5041 2.72727V10H67.4068V2.72727H68.5041ZM70.5021 10V2.72727H75.0618V3.67188H71.5994V5.88778H74.8239V6.82884H71.5994V9.0554H75.1044V10H70.5021ZM80.8941 4.63778C80.8563 4.30161 80.7 4.04119 80.4254 3.85653C80.1508 3.66951 79.8051 3.57599 79.3885 3.57599C79.0902 3.57599 78.8321 3.62334 78.6143 3.71804C78.3965 3.81037 78.2272 3.93821 78.1065 4.10156C77.9881 4.26255 77.9289 4.44602 77.9289 4.65199C77.9289 4.82481 77.9692 4.97396 78.0497 5.09943C78.1325 5.22491 78.2403 5.33026 78.3728 5.41548C78.5078 5.49834 78.6522 5.56818 78.8061 5.625C78.96 5.67945 79.1079 5.72443 79.25 5.75994L79.9602 5.9446C80.1922 6.00142 80.4301 6.07836 80.674 6.17543C80.9178 6.27249 81.1439 6.40033 81.3522 6.55895C81.5606 6.71757 81.7287 6.91406 81.8565 7.14844C81.9867 7.38281 82.0518 7.66335 82.0518 7.99006C82.0518 8.40199 81.9453 8.76776 81.7322 9.08736C81.5215 9.40696 81.2149 9.65909 80.8125 9.84375C80.4124 10.0284 79.9282 10.1207 79.3601 10.1207C78.8155 10.1207 78.3444 10.0343 77.9467 9.86151C77.549 9.68868 77.2377 9.44366 77.0128 9.12642C76.7878 8.80682 76.6636 8.42803 76.6399 7.99006H77.7407C77.762 8.25284 77.8473 8.47183 77.9964 8.64702C78.1479 8.81984 78.3409 8.94886 78.5753 9.03409C78.812 9.11695 79.0712 9.15838 79.3529 9.15838C79.6631 9.15838 79.9389 9.10985 80.1804 9.01278C80.4242 8.91335 80.616 8.77604 80.7556 8.60085C80.8953 8.4233 80.9652 8.21615 80.9652 7.9794C80.9652 7.76397 80.9036 7.58759 80.7805 7.45028C80.6598 7.31297 80.4952 7.19934 80.2869 7.10938C80.0809 7.01941 79.8477 6.9401 79.5873 6.87145L78.7279 6.63707C78.1456 6.47846 77.6839 6.24527 77.343 5.9375C77.0045 5.62973 76.8352 5.22254 76.8352 4.71591C76.8352 4.29687 76.9488 3.93111 77.1761 3.61861C77.4034 3.30611 77.7111 3.06345 78.0994 2.89062C78.4877 2.71544 78.9256 2.62784 79.4133 2.62784C79.9057 2.62784 80.3402 2.71425 80.7166 2.88707C81.0954 3.0599 81.3937 3.29782 81.6115 3.60085C81.8293 3.90151 81.9429 4.24716 81.9524 4.63778H80.8941Z" fill="#1E1E1E"/>
<path d="M19.6591 44.8182L31.5909 85.8409H32.0455L43.9773 44.8182H61.8182L42.6136 103H21.0227L1.81818 44.8182H19.6591ZM65.8219 103V44.8182H90.9355C95.2537 44.8182 99.0321 45.6042 102.271 47.1761C105.509 48.7481 108.028 51.0114 109.828 53.9659C111.627 56.9205 112.526 60.4621 112.526 64.5909C112.526 68.7576 111.598 72.2708 109.742 75.1307C107.905 77.9905 105.32 80.1496 101.987 81.608C98.6723 83.0663 94.7991 83.7955 90.3673 83.7955H75.3673V71.5227H87.1855C89.0416 71.5227 90.623 71.2955 91.9298 70.8409C93.2556 70.3674 94.2688 69.6193 94.9696 68.5966C95.6893 67.5739 96.0492 66.2386 96.0492 64.5909C96.0492 62.9242 95.6893 61.5701 94.9696 60.5284C94.2688 59.4678 93.2556 58.6913 91.9298 58.1989C90.623 57.6875 89.0416 57.4318 87.1855 57.4318H81.6173V103H65.8219ZM99.9128 76.2955L114.458 103H97.2992L83.0946 76.2955H99.9128Z" fill="#ECECEC"/>
<path d="M20.6818 114.818L30.2273 131.75H30.6818L40.3409 114.818H57.9545L40.5682 143.909L58.6364 173H40.5682L30.6818 155.727H30.2273L20.3409 173H2.38636L20.2273 143.909L2.95455 114.818H20.6818ZM78.9611 114.818V173H63.1656V114.818H78.9611ZM100.756 114.818L112.688 155.841H113.142L125.074 114.818H142.915L123.711 173H102.12L82.9151 114.818H100.756Z" fill="black"/>
<path opacity="0.4" d="M169.003 118.273V127H167.793L163.357 120.599H163.276V127H161.959V118.273H163.178L167.618 124.682H167.699V118.273H169.003ZM173.642 127.132C172.998 127.132 172.442 126.994 171.976 126.719C171.513 126.44 171.155 126.05 170.902 125.547C170.652 125.041 170.527 124.449 170.527 123.77C170.527 123.099 170.652 122.509 170.902 121.997C171.155 121.486 171.507 121.087 171.959 120.8C172.414 120.513 172.945 120.369 173.553 120.369C173.922 120.369 174.28 120.43 174.627 120.553C174.973 120.675 175.284 120.866 175.56 121.128C175.836 121.389 176.053 121.729 176.212 122.146C176.371 122.561 176.451 123.065 176.451 123.659V124.111H171.248V123.156H175.202C175.202 122.821 175.134 122.524 174.998 122.266C174.861 122.004 174.669 121.798 174.422 121.648C174.178 121.497 173.891 121.422 173.561 121.422C173.203 121.422 172.891 121.51 172.624 121.686C172.36 121.859 172.155 122.087 172.01 122.368C171.868 122.646 171.797 122.949 171.797 123.276V124.021C171.797 124.459 171.874 124.831 172.027 125.138C172.184 125.445 172.401 125.679 172.679 125.841C172.958 126 173.283 126.08 173.655 126.08C173.897 126.08 174.117 126.045 174.316 125.977C174.515 125.906 174.686 125.801 174.831 125.662C174.976 125.523 175.087 125.351 175.164 125.146L176.37 125.364C176.273 125.719 176.1 126.03 175.85 126.297C175.603 126.561 175.292 126.767 174.917 126.915C174.544 127.06 174.12 127.132 173.642 127.132ZM179.769 127.145C179.354 127.145 178.979 127.068 178.644 126.915C178.309 126.759 178.043 126.533 177.847 126.237C177.654 125.942 177.558 125.58 177.558 125.151C177.558 124.781 177.629 124.477 177.771 124.239C177.913 124 178.104 123.811 178.346 123.672C178.587 123.533 178.857 123.428 179.156 123.357C179.454 123.286 179.758 123.232 180.067 123.195C180.46 123.149 180.778 123.112 181.022 123.084C181.266 123.053 181.444 123.003 181.555 122.935C181.665 122.866 181.721 122.756 181.721 122.602V122.572C181.721 122.2 181.616 121.912 181.406 121.707C181.198 121.503 180.888 121.401 180.477 121.401C180.048 121.401 179.71 121.496 179.462 121.686C179.218 121.874 179.049 122.082 178.955 122.312L177.758 122.04C177.9 121.642 178.107 121.321 178.38 121.077C178.656 120.83 178.972 120.651 179.33 120.54C179.688 120.426 180.065 120.369 180.46 120.369C180.721 120.369 180.998 120.401 181.29 120.463C181.586 120.523 181.862 120.634 182.117 120.795C182.376 120.957 182.587 121.189 182.752 121.49C182.917 121.788 182.999 122.176 182.999 122.653V127H181.755V126.105H181.704C181.621 126.27 181.498 126.432 181.333 126.591C181.168 126.75 180.957 126.882 180.698 126.987C180.44 127.092 180.13 127.145 179.769 127.145ZM180.046 126.122C180.398 126.122 180.7 126.053 180.95 125.913C181.202 125.774 181.394 125.592 181.525 125.368C181.658 125.141 181.725 124.898 181.725 124.639V123.795C181.68 123.841 181.592 123.884 181.461 123.923C181.333 123.96 181.187 123.993 181.022 124.021C180.857 124.047 180.697 124.071 180.54 124.094C180.384 124.114 180.254 124.131 180.148 124.145C179.901 124.176 179.675 124.229 179.471 124.303C179.269 124.376 179.107 124.483 178.985 124.622C178.866 124.759 178.806 124.94 178.806 125.168C178.806 125.483 178.923 125.722 179.156 125.884C179.388 126.043 179.685 126.122 180.046 126.122ZM184.696 127V120.455H185.928V121.494H185.996C186.115 121.142 186.326 120.865 186.627 120.663C186.931 120.459 187.275 120.357 187.658 120.357C187.738 120.357 187.831 120.359 187.939 120.365C188.05 120.371 188.137 120.378 188.199 120.386V121.605C188.148 121.591 188.057 121.575 187.926 121.558C187.796 121.538 187.665 121.528 187.534 121.528C187.233 121.528 186.965 121.592 186.729 121.72C186.496 121.845 186.311 122.02 186.175 122.244C186.039 122.466 185.971 122.719 185.971 123.003V127H184.696ZM192.772 122.76V123.864H188.902V122.76H192.772ZM197.585 120.455V121.477H193.886V120.455H197.585ZM194.9 127V119.696C194.9 119.287 194.99 118.947 195.169 118.678C195.348 118.405 195.585 118.202 195.88 118.068C196.176 117.932 196.497 117.864 196.843 117.864C197.099 117.864 197.318 117.885 197.5 117.928C197.681 117.967 197.816 118.004 197.904 118.038L197.606 119.07C197.547 119.053 197.47 119.033 197.376 119.01C197.282 118.984 197.169 118.972 197.035 118.972C196.725 118.972 196.504 119.048 196.37 119.202C196.24 119.355 196.174 119.577 196.174 119.866V127H194.9ZM198.9 127V120.455H200.174V127H198.9ZM199.543 119.445C199.321 119.445 199.131 119.371 198.972 119.223C198.816 119.072 198.738 118.893 198.738 118.686C198.738 118.476 198.816 118.297 198.972 118.149C199.131 117.999 199.321 117.923 199.543 117.923C199.765 117.923 199.953 117.999 200.11 118.149C200.269 118.297 200.348 118.476 200.348 118.686C200.348 118.893 200.269 119.072 200.11 119.223C199.953 119.371 199.765 119.445 199.543 119.445ZM204.709 127.132C204.064 127.132 203.509 126.994 203.043 126.719C202.58 126.44 202.222 126.05 201.969 125.547C201.719 125.041 201.594 124.449 201.594 123.77C201.594 123.099 201.719 122.509 201.969 121.997C202.222 121.486 202.574 121.087 203.026 120.8C203.48 120.513 204.011 120.369 204.619 120.369C204.989 120.369 205.347 120.43 205.693 120.553C206.04 120.675 206.351 120.866 206.626 121.128C206.902 121.389 207.119 121.729 207.278 122.146C207.438 122.561 207.517 123.065 207.517 123.659V124.111H202.314V123.156H206.268C206.268 122.821 206.2 122.524 206.064 122.266C205.928 122.004 205.736 121.798 205.489 121.648C205.244 121.497 204.957 121.422 204.628 121.422C204.27 121.422 203.957 121.51 203.69 121.686C203.426 121.859 203.222 122.087 203.077 122.368C202.935 122.646 202.864 122.949 202.864 123.276V124.021C202.864 124.459 202.94 124.831 203.094 125.138C203.25 125.445 203.467 125.679 203.746 125.841C204.024 126 204.349 126.08 204.722 126.08C204.963 126.08 205.183 126.045 205.382 125.977C205.581 125.906 205.753 125.801 205.898 125.662C206.043 125.523 206.153 125.351 206.23 125.146L207.436 125.364C207.339 125.719 207.166 126.03 206.916 126.297C206.669 126.561 206.358 126.767 205.983 126.915C205.611 127.06 205.186 127.132 204.709 127.132ZM210.205 118.273V127H208.931V118.273H210.205ZM214.369 127.128C213.841 127.128 213.369 126.993 212.955 126.723C212.543 126.45 212.219 126.062 211.983 125.56C211.75 125.054 211.634 124.447 211.634 123.74C211.634 123.033 211.751 122.428 211.987 121.925C212.226 121.422 212.553 121.037 212.967 120.77C213.382 120.503 213.852 120.369 214.378 120.369C214.784 120.369 215.111 120.438 215.358 120.574C215.608 120.707 215.801 120.864 215.938 121.043C216.077 121.222 216.185 121.379 216.261 121.516H216.338V118.273H217.612V127H216.368V125.982H216.261C216.185 126.121 216.074 126.28 215.929 126.459C215.787 126.638 215.591 126.794 215.341 126.928C215.091 127.061 214.767 127.128 214.369 127.128ZM214.651 126.041C215.017 126.041 215.327 125.945 215.58 125.751C215.835 125.555 216.028 125.284 216.159 124.938C216.293 124.591 216.359 124.187 216.359 123.727C216.359 123.273 216.294 122.875 216.163 122.534C216.033 122.193 215.841 121.928 215.588 121.737C215.335 121.547 215.023 121.452 214.651 121.452C214.267 121.452 213.947 121.551 213.692 121.75C213.436 121.949 213.243 122.22 213.112 122.564C212.984 122.908 212.92 123.295 212.92 123.727C212.92 124.165 212.986 124.558 213.116 124.908C213.247 125.257 213.44 125.534 213.696 125.739C213.955 125.94 214.273 126.041 214.651 126.041ZM225.364 127.132C224.73 127.132 224.185 126.989 223.727 126.702C223.273 126.412 222.923 126.013 222.679 125.504C222.435 124.996 222.312 124.413 222.312 123.757C222.312 123.092 222.438 122.506 222.688 121.997C222.938 121.486 223.29 121.087 223.744 120.8C224.199 120.513 224.734 120.369 225.351 120.369C225.848 120.369 226.291 120.462 226.68 120.646C227.07 120.828 227.384 121.084 227.622 121.413C227.864 121.743 228.007 122.128 228.053 122.568H226.812C226.744 122.261 226.588 121.997 226.344 121.776C226.102 121.554 225.778 121.443 225.372 121.443C225.017 121.443 224.706 121.537 224.439 121.724C224.175 121.909 223.969 122.173 223.821 122.517C223.673 122.858 223.599 123.261 223.599 123.727C223.599 124.205 223.672 124.616 223.817 124.963C223.962 125.31 224.166 125.578 224.43 125.768C224.697 125.959 225.011 126.054 225.372 126.054C225.614 126.054 225.832 126.01 226.028 125.922C226.227 125.831 226.393 125.702 226.527 125.534C226.663 125.366 226.759 125.165 226.812 124.929H228.053C228.007 125.352 227.869 125.73 227.639 126.062C227.409 126.395 227.101 126.656 226.714 126.847C226.331 127.037 225.881 127.132 225.364 127.132ZM232.172 127.132C231.559 127.132 231.023 126.991 230.566 126.71C230.108 126.429 229.753 126.036 229.5 125.53C229.248 125.024 229.121 124.433 229.121 123.757C229.121 123.078 229.248 122.484 229.5 121.976C229.753 121.467 230.108 121.072 230.566 120.791C231.023 120.51 231.559 120.369 232.172 120.369C232.786 120.369 233.321 120.51 233.779 120.791C234.236 121.072 234.591 121.467 234.844 121.976C235.097 122.484 235.223 123.078 235.223 123.757C235.223 124.433 235.097 125.024 234.844 125.53C234.591 126.036 234.236 126.429 233.779 126.71C233.321 126.991 232.786 127.132 232.172 127.132ZM232.176 126.062C232.574 126.062 232.904 125.957 233.165 125.747C233.426 125.537 233.62 125.257 233.745 124.908C233.873 124.558 233.936 124.173 233.936 123.753C233.936 123.335 233.873 122.952 233.745 122.602C233.62 122.25 233.426 121.967 233.165 121.754C232.904 121.541 232.574 121.435 232.176 121.435C231.776 121.435 231.444 121.541 231.179 121.754C230.918 121.967 230.723 122.25 230.596 122.602C230.471 122.952 230.408 123.335 230.408 123.753C230.408 124.173 230.471 124.558 230.596 124.908C230.723 125.257 230.918 125.537 231.179 125.747C231.444 125.957 231.776 126.062 232.176 126.062ZM236.646 127V120.455H237.869V121.52H237.95C238.086 121.159 238.309 120.878 238.619 120.676C238.928 120.472 239.299 120.369 239.731 120.369C240.168 120.369 240.535 120.472 240.83 120.676C241.129 120.881 241.349 121.162 241.491 121.52H241.559C241.715 121.17 241.964 120.892 242.305 120.685C242.646 120.474 243.052 120.369 243.523 120.369C244.117 120.369 244.602 120.555 244.977 120.928C245.354 121.3 245.543 121.861 245.543 122.611V127H244.269V122.73C244.269 122.287 244.148 121.966 243.907 121.767C243.665 121.568 243.377 121.469 243.042 121.469C242.627 121.469 242.305 121.597 242.075 121.852C241.844 122.105 241.729 122.43 241.729 122.828V127H240.46V122.649C240.46 122.294 240.349 122.009 240.127 121.793C239.906 121.577 239.617 121.469 239.262 121.469C239.021 121.469 238.798 121.533 238.593 121.661C238.391 121.786 238.228 121.96 238.103 122.185C237.981 122.409 237.92 122.669 237.92 122.964V127H236.646ZM247.251 127V120.455H248.474V121.52H248.555C248.691 121.159 248.914 120.878 249.224 120.676C249.534 120.472 249.904 120.369 250.336 120.369C250.774 120.369 251.14 120.472 251.436 120.676C251.734 120.881 251.954 121.162 252.096 121.52H252.164C252.321 121.17 252.569 120.892 252.91 120.685C253.251 120.474 253.657 120.369 254.129 120.369C254.723 120.369 255.207 120.555 255.582 120.928C255.96 121.3 256.149 121.861 256.149 122.611V127H254.875V122.73C254.875 122.287 254.754 121.966 254.512 121.767C254.271 121.568 253.983 121.469 253.647 121.469C253.233 121.469 252.91 121.597 252.68 121.852C252.45 122.105 252.335 122.43 252.335 122.828V127H251.065V122.649C251.065 122.294 250.954 122.009 250.733 121.793C250.511 121.577 250.223 121.469 249.868 121.469C249.626 121.469 249.403 121.533 249.199 121.661C248.997 121.786 248.833 121.96 248.708 122.185C248.586 122.409 248.525 122.669 248.525 122.964V127H247.251ZM262.003 124.286V120.455H263.281V127H262.028V125.866H261.96C261.81 126.216 261.568 126.507 261.236 126.74C260.906 126.97 260.496 127.085 260.004 127.085C259.584 127.085 259.212 126.993 258.888 126.808C258.567 126.621 258.314 126.344 258.129 125.977C257.947 125.611 257.857 125.158 257.857 124.618V120.455H259.131V124.464C259.131 124.911 259.254 125.266 259.501 125.53C259.749 125.794 260.07 125.926 260.464 125.926C260.703 125.926 260.94 125.866 261.176 125.747C261.415 125.628 261.612 125.447 261.768 125.206C261.928 124.964 262.006 124.658 262.003 124.286ZM266.267 123.114V127H264.993V120.455H266.216V121.52H266.297C266.448 121.173 266.684 120.895 267.005 120.685C267.328 120.474 267.736 120.369 268.228 120.369C268.674 120.369 269.064 120.463 269.4 120.651C269.735 120.835 269.995 121.111 270.179 121.477C270.364 121.844 270.456 122.297 270.456 122.837V127H269.182V122.99C269.182 122.516 269.059 122.145 268.811 121.878C268.564 121.608 268.225 121.473 267.793 121.473C267.498 121.473 267.235 121.537 267.005 121.665C266.777 121.793 266.597 121.98 266.463 122.227C266.333 122.472 266.267 122.767 266.267 123.114ZM272.165 127V120.455H273.439V127H272.165ZM272.809 119.445C272.587 119.445 272.397 119.371 272.238 119.223C272.081 119.072 272.003 118.893 272.003 118.686C272.003 118.476 272.081 118.297 272.238 118.149C272.397 117.999 272.587 117.923 272.809 117.923C273.03 117.923 273.219 117.999 273.375 118.149C273.534 118.297 273.614 118.476 273.614 118.686C273.614 118.893 273.534 119.072 273.375 119.223C273.219 119.371 273.03 119.445 272.809 119.445ZM277.911 127.132C277.277 127.132 276.732 126.989 276.274 126.702C275.82 126.412 275.47 126.013 275.226 125.504C274.982 124.996 274.859 124.413 274.859 123.757C274.859 123.092 274.984 122.506 275.234 121.997C275.484 121.486 275.837 121.087 276.291 120.8C276.746 120.513 277.281 120.369 277.898 120.369C278.395 120.369 278.838 120.462 279.227 120.646C279.616 120.828 279.93 121.084 280.169 121.413C280.411 121.743 280.554 122.128 280.599 122.568H279.359C279.291 122.261 279.135 121.997 278.891 121.776C278.649 121.554 278.325 121.443 277.919 121.443C277.564 121.443 277.253 121.537 276.986 121.724C276.722 121.909 276.516 122.173 276.368 122.517C276.22 122.858 276.146 123.261 276.146 123.727C276.146 124.205 276.219 124.616 276.364 124.963C276.509 125.31 276.713 125.578 276.977 125.768C277.244 125.959 277.558 126.054 277.919 126.054C278.161 126.054 278.379 126.01 278.575 125.922C278.774 125.831 278.94 125.702 279.074 125.534C279.21 125.366 279.305 125.165 279.359 124.929H280.599C280.554 125.352 280.416 125.73 280.186 126.062C279.956 126.395 279.648 126.656 279.261 126.847C278.878 127.037 278.428 127.132 277.911 127.132ZM283.867 127.145C283.452 127.145 283.077 127.068 282.742 126.915C282.407 126.759 282.141 126.533 281.945 126.237C281.752 125.942 281.655 125.58 281.655 125.151C281.655 124.781 281.726 124.477 281.868 124.239C282.01 124 282.202 123.811 282.444 123.672C282.685 123.533 282.955 123.428 283.253 123.357C283.551 123.286 283.855 123.232 284.165 123.195C284.557 123.149 284.875 123.112 285.12 123.084C285.364 123.053 285.542 123.003 285.652 122.935C285.763 122.866 285.819 122.756 285.819 122.602V122.572C285.819 122.2 285.713 121.912 285.503 121.707C285.296 121.503 284.986 121.401 284.574 121.401C284.145 121.401 283.807 121.496 283.56 121.686C283.316 121.874 283.147 122.082 283.053 122.312L281.855 122.04C281.998 121.642 282.205 121.321 282.478 121.077C282.753 120.83 283.07 120.651 283.428 120.54C283.786 120.426 284.162 120.369 284.557 120.369C284.819 120.369 285.096 120.401 285.388 120.463C285.684 120.523 285.959 120.634 286.215 120.795C286.473 120.957 286.685 121.189 286.85 121.49C287.015 121.788 287.097 122.176 287.097 122.653V127H285.853V126.105H285.801C285.719 126.27 285.596 126.432 285.431 126.591C285.266 126.75 285.054 126.882 284.796 126.987C284.537 127.092 284.228 127.145 283.867 127.145ZM284.144 126.122C284.496 126.122 284.797 126.053 285.047 125.913C285.3 125.774 285.492 125.592 285.623 125.368C285.756 125.141 285.823 124.898 285.823 124.639V123.795C285.777 123.841 285.689 123.884 285.559 123.923C285.431 123.96 285.284 123.993 285.12 124.021C284.955 124.047 284.794 124.071 284.638 124.094C284.482 124.114 284.351 124.131 284.246 124.145C283.999 124.176 283.773 124.229 283.569 124.303C283.367 124.376 283.205 124.483 283.083 124.622C282.963 124.759 282.904 124.94 282.904 125.168C282.904 125.483 283.02 125.722 283.253 125.884C283.486 126.043 283.783 126.122 284.144 126.122ZM291.849 120.455V121.477H288.274V120.455H291.849ZM289.233 118.886H290.507V125.078C290.507 125.325 290.544 125.511 290.618 125.636C290.692 125.759 290.787 125.842 290.903 125.888C291.023 125.93 291.152 125.952 291.291 125.952C291.393 125.952 291.483 125.945 291.56 125.93C291.636 125.916 291.696 125.905 291.739 125.896L291.969 126.949C291.895 126.977 291.79 127.006 291.653 127.034C291.517 127.065 291.347 127.082 291.142 127.085C290.807 127.091 290.494 127.031 290.205 126.906C289.915 126.781 289.68 126.588 289.501 126.327C289.322 126.065 289.233 125.737 289.233 125.342V118.886ZM293.259 127V120.455H294.533V127H293.259ZM293.902 119.445C293.681 119.445 293.49 119.371 293.331 119.223C293.175 119.072 293.097 118.893 293.097 118.686C293.097 118.476 293.175 118.297 293.331 118.149C293.49 117.999 293.681 117.923 293.902 117.923C294.124 117.923 294.313 117.999 294.469 118.149C294.628 118.297 294.708 118.476 294.708 118.686C294.708 118.893 294.628 119.072 294.469 119.223C294.313 119.371 294.124 119.445 293.902 119.445ZM299.004 127.132C298.391 127.132 297.855 126.991 297.398 126.71C296.94 126.429 296.585 126.036 296.332 125.53C296.08 125.024 295.953 124.433 295.953 123.757C295.953 123.078 296.08 122.484 296.332 121.976C296.585 121.467 296.94 121.072 297.398 120.791C297.855 120.51 298.391 120.369 299.004 120.369C299.618 120.369 300.153 120.51 300.611 120.791C301.068 121.072 301.423 121.467 301.676 121.976C301.929 122.484 302.055 123.078 302.055 123.757C302.055 124.433 301.929 125.024 301.676 125.53C301.423 126.036 301.068 126.429 300.611 126.71C300.153 126.991 299.618 127.132 299.004 127.132ZM299.009 126.062C299.406 126.062 299.736 125.957 299.997 125.747C300.259 125.537 300.452 125.257 300.577 124.908C300.705 124.558 300.768 124.173 300.768 123.753C300.768 123.335 300.705 122.952 300.577 122.602C300.452 122.25 300.259 121.967 299.997 121.754C299.736 121.541 299.406 121.435 299.009 121.435C298.608 121.435 298.276 121.541 298.011 121.754C297.75 121.967 297.555 122.25 297.428 122.602C297.303 122.952 297.24 123.335 297.24 123.753C297.24 124.173 297.303 124.558 297.428 124.908C297.555 125.257 297.75 125.537 298.011 125.747C298.276 125.957 298.608 126.062 299.009 126.062ZM304.752 123.114V127H303.478V120.455H304.701V121.52H304.782C304.932 121.173 305.168 120.895 305.489 120.685C305.813 120.474 306.221 120.369 306.712 120.369C307.158 120.369 307.549 120.463 307.884 120.651C308.219 120.835 308.479 121.111 308.664 121.477C308.848 121.844 308.941 122.297 308.941 122.837V127H307.667V122.99C307.667 122.516 307.543 122.145 307.296 121.878C307.049 121.608 306.709 121.473 306.277 121.473C305.982 121.473 305.719 121.537 305.489 121.665C305.262 121.793 305.081 121.98 304.948 122.227C304.817 122.472 304.752 122.767 304.752 123.114Z" fill="#1E1E1E"/>
<path opacity="0.2" d="M342.307 113.364L329.182 162.125H327.83L340.955 113.364H342.307Z" fill="#1E1E1E"/>
<path d="M26.25 221.409H38.5227L42.9545 226.977L50.4545 235.5L60.2273 247.318H46.25L39.3182 239.25L34.6591 232.545L26.25 221.409ZM60.1136 213.909C60.1136 220.386 58.8542 225.85 56.3352 230.301C53.8163 234.733 50.4167 238.095 46.1364 240.386C41.8561 242.659 37.0833 243.795 31.8182 243.795C26.5152 243.795 21.7235 242.65 17.4432 240.358C13.1818 238.047 9.79167 234.676 7.27273 230.244C4.77273 225.794 3.52273 220.348 3.52273 213.909C3.52273 207.432 4.77273 201.977 7.27273 197.545C9.79167 193.095 13.1818 189.733 17.4432 187.46C21.7235 185.169 26.5152 184.023 31.8182 184.023C37.0833 184.023 41.8561 185.169 46.1364 187.46C50.4167 189.733 53.8163 193.095 56.3352 197.545C58.8542 201.977 60.1136 207.432 60.1136 213.909ZM43.8636 213.909C43.8636 210.424 43.3996 207.489 42.4716 205.102C41.5625 202.697 40.2083 200.879 38.4091 199.648C36.6288 198.398 34.4318 197.773 31.8182 197.773C29.2045 197.773 26.9981 198.398 25.1989 199.648C23.4186 200.879 22.0644 202.697 21.1364 205.102C20.2273 207.489 19.7727 210.424 19.7727 213.909C19.7727 217.394 20.2273 220.339 21.1364 222.744C22.0644 225.131 23.4186 226.949 25.1989 228.199C26.9981 229.43 29.2045 230.045 31.8182 230.045C34.4318 230.045 36.6288 229.43 38.4091 228.199C40.2083 226.949 41.5625 225.131 42.4716 222.744C43.3996 220.339 43.8636 217.394 43.8636 213.909ZM65.9 243V184.818H91.0136C95.3318 184.818 99.1102 185.604 102.349 187.176C105.588 188.748 108.106 191.011 109.906 193.966C111.705 196.92 112.605 200.462 112.605 204.591C112.605 208.758 111.677 212.271 109.82 215.131C107.983 217.991 105.398 220.15 102.065 221.608C98.7504 223.066 94.8773 223.795 90.4455 223.795H75.4455V211.523H87.2636C89.1197 211.523 90.7011 211.295 92.008 210.841C93.3337 210.367 94.347 209.619 95.0477 208.597C95.7674 207.574 96.1273 206.239 96.1273 204.591C96.1273 202.924 95.7674 201.57 95.0477 200.528C94.347 199.468 93.3337 198.691 92.008 198.199C90.7011 197.687 89.1197 197.432 87.2636 197.432H81.6955V243H65.9ZM99.9909 216.295L114.536 243H97.3773L83.1727 216.295H99.9909Z" fill="black"/>
</svg>
