<svg width="16" height="15" viewBox="0 0 16 15" fill="none" xmlns="http://www.w3.org/2000/svg">
<path d="M1.33286 12.5756C2.26503 13.75 3.99995 13.75 7.46979 13.75H8.03019C11.5 13.75 13.235 13.75 14.1671 12.5756M1.33286 12.5756C0.400698 11.4011 0.720422 9.61813 1.35987 6.05213C1.81462 3.51617 2.04199 2.24819 2.90522 1.4991M1.33286 12.5756C1.33286 12.5756 1.33286 12.5756 1.33286 12.5756ZM14.1671 12.5756C15.0993 11.4011 14.7796 9.61813 14.1401 6.05213C13.6854 3.51617 13.458 2.24819 12.5948 1.4991M14.1671 12.5756C14.1671 12.5756 14.1671 12.5756 14.1671 12.5756ZM12.5948 1.4991C11.7315 0.750001 10.4978 0.750001 8.03019 0.750001H7.46979C5.00222 0.750001 3.76844 0.750001 2.90522 1.4991M12.5948 1.4991C12.5948 1.4991 12.5948 1.4991 12.5948 1.4991ZM2.90522 1.4991C2.90521 1.4991 2.90522 1.4991 2.90522 1.4991Z" stroke="black" stroke-width="1.5"/>
<path d="M5.74999 3.75C6.04111 4.91519 6.82664 5.75 7.74999 5.75C8.67334 5.75 9.45887 4.91519 9.74999 3.75" stroke="black" stroke-width="1.5" stroke-linecap="round"/>
</svg>
