<svg width="22" height="22" viewBox="0 0 22 22" fill="none" xmlns="http://www.w3.org/2000/svg">
<path d="M12.8059 16.6943L12.7597 15.9458L12.8059 16.6943ZM7.33268 6.82443L7.27619 7.5723C7.4795 7.58766 7.68029 7.51958 7.83234 7.38375C7.98439 7.24792 8.07458 7.05605 8.08216 6.8523L7.33268 6.82443ZM16.5254 13.3716L17.264 13.5015L16.5254 13.3716ZM12.7597 15.9458C11.1685 16.0438 9.53441 16.2341 7.93558 16.0486C6.37521 15.8676 4.93302 15.3326 3.75939 14.0189L2.64075 15.0182C4.12626 16.6811 5.95231 17.3286 7.76272 17.5386C9.53468 17.7442 11.3739 17.534 12.852 17.4429L12.7597 15.9458ZM3.75939 14.0189C2.61677 12.7398 2.3858 11.0269 2.96459 9.70578C3.52252 8.43233 4.89677 7.39259 7.27619 7.5723L7.38916 6.07656C4.45773 5.85516 2.43611 7.17414 1.59067 9.10384C0.766087 10.9859 1.12425 13.3206 2.64075 15.0182L3.75939 14.0189ZM12.852 17.4429C13.3848 17.4101 13.9662 17.3726 14.4961 17.265C15.0257 17.1575 15.5862 16.9652 16.0342 16.565L15.0349 15.4464C14.8709 15.5929 14.6086 15.7116 14.1976 15.795C13.7869 15.8784 13.3101 15.9118 12.7597 15.9458L12.852 17.4429ZM17.264 13.5015C17.5206 12.043 17.936 10.239 17.9307 8.45517C17.9254 6.63262 17.4871 4.74539 16.0016 3.08251L14.8829 4.08183C16.0566 5.3956 16.4261 6.88874 16.4307 8.45957C16.4355 10.0691 16.0629 11.6715 15.7867 13.2417L17.264 13.5015ZM16.0016 3.08251C14.4851 1.38493 12.2054 0.766811 10.2426 1.37478C8.23015 1.99813 6.69245 3.85881 6.5832 6.79656L8.08216 6.8523C8.17084 4.46776 9.35835 3.21898 10.6864 2.80762C12.0641 2.38087 13.7403 2.80277 14.8829 4.08183L16.0016 3.08251ZM15.7867 13.2417C15.6912 13.7847 15.6044 14.2548 15.4754 14.6535C15.3464 15.0525 15.199 15.2998 15.0349 15.4464L16.0342 16.565C16.4823 16.1647 16.7363 15.6293 16.9026 15.1152C17.069 14.6007 17.1716 14.0272 17.264 13.5015L15.7867 13.2417Z" fill="white"/>
</svg>
